<?xml version="1.0" encoding="UTF-8" standalone="no"?>
<!DOCTYPE svg PUBLIC "-//W3C//DTD SVG 1.1//EN"
 "http://www.w3.org/Graphics/SVG/1.1/DTD/svg11.dtd">
<!-- Generated by graphviz version 16.1.0 (20260904.0139)
 -->
<!-- Title: packages_RyCA Pages: 1 -->
<svg width="608pt" height="188pt"
 viewBox="0.00 0.00 608.00 188.00" xmlns="http://www.w3.org/2000/svg" xmlns:xlink="http://www.w3.org/1999/xlink">
<g id="graph0" class="graph" transform="scale(1 1) rotate(0) translate(4 184)">
<title>packages_RyCA</title>
<polygon fill="white" stroke="none" points="-4,4 -4,-184 604.25,-184 604.25,4 -4,4"/>
<!-- src -->
<g id="node1" class="node">
<title>src</title>
<polygon fill="none" stroke="black" points="220.62,-36 166.62,-36 166.62,0 220.62,0 220.62,-36"/>
<text xml:space="preserve" text-anchor="start" x="185.75" y="-13.5" font-family="Times New Roman,serif" font-size="14.00">src</text>
</g>
<!-- src.ai_eval -->
<g id="node2" class="node">
<title>src.ai_eval</title>
<polygon fill="none" stroke="black" points="419.88,-108 345.38,-108 345.38,-72 419.88,-72 419.88,-108"/>
<text xml:space="preserve" text-anchor="start" x="353.38" y="-85.5" font-family="Times New Roman,serif" font-size="14.00">src.ai_eval</text>
</g>
<!-- src.utils.error_store -->
<g id="node10" class="node">
<title>src.utils.error_store</title>
<polygon fill="none" stroke="black" points="440.5,-180 318.75,-180 318.75,-144 440.5,-144 440.5,-180"/>
<text xml:space="preserve" text-anchor="start" x="326.75" y="-157.5" font-family="Times New Roman,serif" font-size="14.00">src.utils.error_store</text>
</g>
<!-- src.ai_eval&#45;&gt;src.utils.error_store -->
<g id="edge1" class="edge">
<title>src.ai_eval&#45;&gt;src.utils.error_store</title>
<path fill="none" stroke="black" d="M381.88,-108.3C381.57,-115.68 381.19,-124.48 380.84,-132.75"/>
<polygon fill="black" stroke="black" points="380.41,-142.68 376.34,-132.49 380.57,-138.9 380.84,-132.69 380.84,-132.69 380.84,-132.69 380.57,-138.9 385.33,-132.88 380.41,-142.68"/>
</g>
<!-- src.utils.week_file_save -->
<g id="node12" class="node">
<title>src.utils.week_file_save</title>
<polygon fill="none" stroke="black" points="300.88,-180 154.38,-180 154.38,-144 300.88,-144 300.88,-180"/>
<text xml:space="preserve" text-anchor="start" x="162.38" y="-157.5" font-family="Times New Roman,serif" font-size="14.00">src.utils.week_file_save</text>
</g>
<!-- src.ai_eval&#45;&gt;src.utils.week_file_save -->
<g id="edge2" class="edge">
<title>src.ai_eval&#45;&gt;src.utils.week_file_save</title>
<path fill="none" stroke="black" d="M345.1,-107.95C324.36,-117.31 298.35,-129.06 276.08,-139.12"/>
<polygon fill="black" stroke="black" points="267.26,-143.1 274.52,-134.88 270.7,-141.54 276.37,-138.99 276.37,-138.99 276.37,-138.99 270.7,-141.54 278.22,-143.09 267.26,-143.1"/>
</g>
<!-- src.ai_inference -->
<g id="node3" class="node">
<title>src.ai_inference</title>
<polygon fill="none" stroke="black" points="577.75,-108 475.5,-108 475.5,-72 577.75,-72 577.75,-108"/>
<text xml:space="preserve" text-anchor="start" x="483.5" y="-85.5" font-family="Times New Roman,serif" font-size="14.00">src.ai_inference</text>
</g>
<!-- src.ai_inference&#45;&gt;src.utils.error_store -->
<g id="edge3" class="edge">
<title>src.ai_inference&#45;&gt;src.utils.error_store</title>
<path fill="none" stroke="black" d="M489.91,-108.48C470.63,-117.66 446.8,-129.01 426.24,-138.8"/>
<polygon fill="black" stroke="black" points="417.23,-143.09 424.32,-134.73 420.64,-141.47 426.26,-138.8 426.26,-138.8 426.26,-138.8 420.64,-141.47 428.19,-142.86 417.23,-143.09"/>
</g>
<!-- src.utils.find_reference -->
<g id="node11" class="node">
<title>src.utils.find_reference</title>
<polygon fill="none" stroke="black" points="600.25,-180 459,-180 459,-144 600.25,-144 600.25,-180"/>
<text xml:space="preserve" text-anchor="start" x="467" y="-157.5" font-family="Times New Roman,serif" font-size="14.00">src.utils.find_reference</text>
</g>
<!-- src.ai_inference&#45;&gt;src.utils.find_reference -->
<g id="edge4" class="edge">
<title>src.ai_inference&#45;&gt;src.utils.find_reference</title>
<path fill="none" stroke="black" d="M527.37,-108.3C527.68,-115.68 528.06,-124.48 528.41,-132.75"/>
<polygon fill="black" stroke="black" points="528.84,-142.68 523.92,-132.88 528.68,-138.9 528.41,-132.69 528.41,-132.69 528.41,-132.69 528.68,-138.9 532.91,-132.49 528.84,-142.68"/>
</g>
<!-- src.ai_inference&#45;&gt;src.utils.week_file_save -->
<g id="edge5" class="edge">
<title>src.ai_inference&#45;&gt;src.utils.week_file_save</title>
<path fill="none" stroke="black" d="M475.23,-103.03C430.39,-113.53 364.49,-128.96 311.94,-141.26"/>
<polygon fill="black" stroke="black" points="302.47,-143.48 311.18,-136.82 306.15,-142.62 312.21,-141.2 312.21,-141.2 312.21,-141.2 306.15,-142.62 313.23,-145.58 302.47,-143.48"/>
</g>
<!-- src.clean_data -->
<g id="node4" class="node">
<title>src.clean_data</title>
<polygon fill="none" stroke="black" points="327.25,-108 234,-108 234,-72 327.25,-72 327.25,-108"/>
<text xml:space="preserve" text-anchor="start" x="242" y="-85.5" font-family="Times New Roman,serif" font-size="14.00">src.clean_data</text>
</g>
<!-- src.clean_data&#45;&gt;src.utils.error_store -->
<g id="edge6" class="edge">
<title>src.clean_data&#45;&gt;src.utils.error_store</title>
<path fill="none" stroke="black" d="M305.35,-108.48C317.73,-117.24 332.89,-127.96 346.28,-137.42"/>
<polygon fill="black" stroke="black" points="354.22,-143.04 343.46,-140.94 351.13,-140.85 346.05,-137.26 346.05,-137.26 346.05,-137.26 351.13,-140.85 348.65,-133.59 354.22,-143.04"/>
</g>
<!-- src.clean_data&#45;&gt;src.utils.week_file_save -->
<g id="edge7" class="edge">
<title>src.clean_data&#45;&gt;src.utils.week_file_save</title>
<path fill="none" stroke="black" d="M267.52,-108.3C261.43,-116.36 254.05,-126.11 247.3,-135.02"/>
<polygon fill="black" stroke="black" points="241.31,-142.92 243.76,-132.24 243.59,-139.91 247.35,-134.95 247.35,-134.95 247.35,-134.95 243.59,-139.91 250.94,-137.67 241.31,-142.92"/>
</g>
<!-- src.match_data -->
<g id="node5" class="node">
<title>src.match_data</title>
<polygon fill="none" stroke="black" points="215.88,-108 117.38,-108 117.38,-72 215.88,-72 215.88,-108"/>
<text xml:space="preserve" text-anchor="start" x="125.38" y="-85.5" font-family="Times New Roman,serif" font-size="14.00">src.match_data</text>
</g>
<!-- src.match_data&#45;&gt;src.utils.error_store -->
<g id="edge8" class="edge">
<title>src.match_data&#45;&gt;src.utils.error_store</title>
<path fill="none" stroke="black" d="M216.3,-107.32C246,-117.09 284.06,-129.59 315.96,-140.08"/>
<polygon fill="black" stroke="black" points="325.36,-143.17 314.46,-144.32 321.77,-141.99 315.86,-140.05 315.86,-140.05 315.86,-140.05 321.77,-141.99 317.27,-135.77 325.36,-143.17"/>
</g>
<!-- src.match_data&#45;&gt;src.utils.week_file_save -->
<g id="edge9" class="edge">
<title>src.match_data&#45;&gt;src.utils.week_file_save</title>
<path fill="none" stroke="black" d="M181.7,-108.3C188.87,-116.53 197.58,-126.52 205.47,-135.58"/>
<polygon fill="black" stroke="black" points="211.92,-142.98 201.96,-138.39 209.43,-140.13 205.35,-135.44 205.35,-135.44 205.35,-135.44 209.43,-140.13 208.74,-132.48 211.92,-142.98"/>
</g>
<!-- src.one_ring -->
<g id="node6" class="node">
<title>src.one_ring</title>
<polygon fill="none" stroke="black" points="322.38,-36 238.88,-36 238.88,0 322.38,0 322.38,-36"/>
<text xml:space="preserve" text-anchor="start" x="246.88" y="-13.5" font-family="Times New Roman,serif" font-size="14.00">src.one_ring</text>
</g>
<!-- src.one_ring&#45;&gt;src.ai_inference -->
<g id="edge10" class="edge">
<title>src.one_ring&#45;&gt;src.ai_inference</title>
<path fill="none" stroke="black" d="M322.87,-33.28C325.83,-34.22 328.77,-35.14 331.62,-36 356.39,-43.49 417.36,-59.94 464.59,-72.55"/>
<polygon fill="black" stroke="black" points="474.17,-75.1 463.35,-76.87 470.52,-74.13 464.51,-72.53 464.51,-72.53 464.51,-72.53 470.52,-74.13 465.67,-68.18 474.17,-75.1"/>
</g>
<!-- src.one_ring&#45;&gt;src.clean_data -->
<g id="edge11" class="edge">
<title>src.one_ring&#45;&gt;src.clean_data</title>
<path fill="none" stroke="black" d="M280.62,-36.3C280.62,-43.68 280.62,-52.48 280.62,-60.75"/>
<polygon fill="black" stroke="black" points="280.63,-70.68 276.13,-60.68 280.63,-66.9 280.63,-60.68 280.63,-60.68 280.63,-60.68 280.63,-66.9 285.13,-60.68 280.63,-70.68"/>
</g>
<!-- src.one_ring&#45;&gt;src.match_data -->
<g id="edge12" class="edge">
<title>src.one_ring&#45;&gt;src.match_data</title>
<path fill="none" stroke="black" d="M252.15,-36.48C237.62,-45.4 219.77,-56.37 204.13,-65.97"/>
<polygon fill="black" stroke="black" points="195.77,-71.1 201.94,-62.03 199,-69.12 204.3,-65.87 204.3,-65.87 204.3,-65.87 199,-69.12 206.65,-69.7 195.77,-71.1"/>
</g>
<!-- src.scraper -->
<g id="node7" class="node">
<title>src.scraper</title>
<polygon fill="none" stroke="black" points="98.88,-108 24.38,-108 24.38,-72 98.88,-72 98.88,-108"/>
<text xml:space="preserve" text-anchor="start" x="32.38" y="-85.5" font-family="Times New Roman,serif" font-size="14.00">src.scraper</text>
</g>
<!-- src.one_ring&#45;&gt;src.scraper -->
<g id="edge13" class="edge">
<title>src.one_ring&#45;&gt;src.scraper</title>
<path fill="none" stroke="black" d="M238.64,-33.12C235.59,-34.1 232.56,-35.07 229.62,-36 179.25,-51.88 163.72,-54.21 109.8,-71.72"/>
<polygon fill="black" stroke="black" points="100.43,-74.79 108.53,-67.4 104.02,-73.61 109.93,-71.67 109.93,-71.67 109.93,-71.67 104.02,-73.61 111.33,-75.95 100.43,-74.79"/>
</g>
<!-- src.one_ring&#45;&gt;src.utils.error_store -->
<g id="edge14" class="edge">
<title>src.one_ring&#45;&gt;src.utils.error_store</title>
<path fill="none" stroke="black" d="M322.82,-33.46C365.99,-48.35 427,-69.7 428.62,-72 443.11,-92.57 426.24,-117.84 408.47,-136.2"/>
<polygon fill="black" stroke="black" points="401.75,-142.75 405.76,-132.55 404.46,-140.11 408.91,-135.77 408.91,-135.77 408.91,-135.77 404.46,-140.11 412.05,-138.99 401.75,-142.75"/>
</g>
<!-- src.utils.data_check -->
<g id="node9" class="node">
<title>src.utils.data_check</title>
<polygon fill="none" stroke="black" points="123.25,-180 0,-180 0,-144 123.25,-144 123.25,-180"/>
<text xml:space="preserve" text-anchor="start" x="8" y="-157.5" font-family="Times New Roman,serif" font-size="14.00">src.utils.data_check</text>
</g>
<!-- src.scraper&#45;&gt;src.utils.data_check -->
<g id="edge15" class="edge">
<title>src.scraper&#45;&gt;src.utils.data_check</title>
<path fill="none" stroke="black" d="M61.62,-108.3C61.62,-115.68 61.62,-124.48 61.62,-132.75"/>
<polygon fill="black" stroke="black" points="61.63,-142.68 57.13,-132.68 61.63,-138.9 61.63,-132.68 61.63,-132.68 61.63,-132.68 61.63,-138.9 66.13,-132.68 61.63,-142.68"/>
</g>
<!-- src.scraper&#45;&gt;src.utils.error_store -->
<g id="edge16" class="edge">
<title>src.scraper&#45;&gt;src.utils.error_store</title>
<path fill="none" stroke="black" d="M99.16,-105.21C102.34,-106.22 105.52,-107.17 108.62,-108 192.94,-130.62 218.86,-125.71 307.73,-143.7"/>
<polygon fill="black" stroke="black" points="317.4,-145.7 306.69,-148.08 313.7,-144.93 307.61,-143.67 307.61,-143.67 307.61,-143.67 313.7,-144.93 308.52,-139.27 317.4,-145.7"/>
</g>
<!-- src.scraper&#45;&gt;src.utils.week_file_save -->
<g id="edge17" class="edge">
<title>src.scraper&#45;&gt;src.utils.week_file_save</title>
<path fill="none" stroke="black" d="M99.29,-106.88C121.98,-116.45 151.17,-128.76 175.99,-139.23"/>
<polygon fill="black" stroke="black" points="185.2,-143.11 174.24,-143.37 181.72,-141.64 175.99,-139.22 175.99,-139.22 175.99,-139.22 181.72,-141.64 177.73,-135.08 185.2,-143.11"/>
</g>
<!-- src.utils -->
<g id="node8" class="node">
<title>src.utils</title>
<polygon fill="none" stroke="black" points="399,-36 340.25,-36 340.25,0 399,0 399,-36"/>
<text xml:space="preserve" text-anchor="start" x="348.25" y="-13.5" font-family="Times New Roman,serif" font-size="14.00">src.utils</text>
</g>
</g>
</svg>
